<?xml version="1.0" standalone="no"?>
<!DOCTYPE svg PUBLIC "-//W3C//DTD SVG 20010904//EN"
 "http://www.w3.org/TR/2001/REC-SVG-20010904/DTD/svg10.dtd">
<svg version="1.0" xmlns="http://www.w3.org/2000/svg"
 width="506.000000pt" height="211.000000pt" viewBox="0 0 506.000000 211.000000"
 preserveAspectRatio="xMidYMid meet">
<metadata>
Created by potrace 1.16, written by Peter Selinger 2001-2019
</metadata>
<g transform="translate(0.000000,211.000000) scale(0.100000,-0.100000)"
fill="#000000" stroke="none">
<path d="M780 1664 c-46 -42 -58 -85 -38 -139 18 -52 89 -112 155 -131 61 -18
79 -12 42 13 -48 33 -117 111 -124 142 -15 68 51 107 101 60 26 -24 44 -18 44
16 0 35 -53 75 -101 75 -31 0 -47 -8 -79 -36z"/>
<path d="M3969 1671 c-17 -17 -29 -40 -29 -55 0 -31 15 -34 30 -6 13 24 56 27
88 4 17 -11 22 -25 22 -57 0 -38 -5 -47 -65 -104 -36 -34 -65 -64 -65 -67 0
-8 53 10 95 32 72 37 115 97 115 163 0 101 -122 158 -191 90z"/>
<path d="M2070 1675 c-10 -12 -15 -38 -14 -77 1 -32 -3 -58 -7 -58 -15 0 -88
70 -94 91 -4 10 -10 19 -15 19 -15 0 -17 -37 -4 -75 l12 -37 -39 5 c-21 3 -75
23 -119 44 -44 22 -83 37 -85 35 -7 -7 16 -45 39 -65 44 -39 82 -50 191 -58
181 -13 231 -34 82 -34 -100 -1 -131 -9 -410 -104 -183 -63 -256 -75 -417 -68
-126 4 -234 26 -349 68 -29 11 -56 17 -59 14 -9 -8 58 -73 108 -105 83 -53
175 -82 285 -87 146 -8 249 8 405 63 308 107 358 122 426 133 89 14 157 2 238
-39 66 -34 81 -32 46 5 -13 14 -19 25 -13 25 26 0 143 -147 143 -179 0 -10 3
-12 10 -5 15 15 -17 94 -60 151 -19 26 -64 69 -100 96 -136 104 -169 144 -180
220 -5 37 -6 39 -20 22z"/>
<path d="M2810 1658 c0 -58 -38 -116 -119 -182 -128 -104 -170 -146 -197 -203
-33 -66 -25 -81 11 -21 34 55 87 110 145 152 56 41 99 56 50 18 -53 -41 -103
-92 -97 -98 3 -3 33 9 67 26 115 58 244 42 527 -66 78 -29 177 -63 220 -74 99
-27 276 -37 368 -21 92 16 238 87 290 142 29 31 35 40 20 36 -11 -2 -72 -19
-135 -37 -94 -27 -139 -33 -246 -38 -169 -6 -222 4 -474 88 -113 37 -229 74
-259 80 -52 12 -169 9 -221 -6 -17 -5 -22 -4 -15 4 18 19 131 42 207 42 41 0
95 7 120 15 42 15 128 88 116 100 -3 3 -33 -8 -66 -25 -71 -35 -163 -61 -175
-50 -5 4 -1 19 8 33 9 14 15 38 13 54 -3 28 -3 28 -36 -19 -47 -69 -122 -106
-101 -50 18 47 11 132 -12 132 -5 0 -9 -14 -9 -32z"/>
<path d="M2040 1331 c-98 -21 -207 -103 -251 -189 -20 -39 -24 -62 -24 -132 0
-75 4 -92 30 -143 63 -122 141 -193 335 -308 164 -97 265 -194 300 -289 l24
-65 6 35 c10 58 61 139 120 192 30 27 123 92 205 143 250 156 350 283 350 445
0 89 -22 144 -85 209 -96 99 -271 139 -381 89 -102 -47 -151 -110 -165 -212
-7 -52 10 -138 38 -183 40 -67 174 -95 263 -54 113 52 151 171 73 236 -45 38
-98 35 -146 -9 -20 -19 -33 -38 -29 -42 4 -4 13 -2 19 4 17 17 83 15 97 -2 7
-8 13 -29 13 -47 3 -95 -175 -119 -224 -29 -26 48 -21 143 10 187 80 113 312
67 388 -78 26 -51 24 -124 -7 -189 -32 -69 -122 -167 -208 -228 -177 -124
-268 -216 -312 -313 -12 -26 -25 -46 -29 -44 -4 2 -21 33 -38 68 -39 79 -124
165 -257 260 -169 121 -253 220 -276 325 -21 99 21 178 121 230 59 31 71 34
137 30 83 -4 115 -22 150 -84 27 -47 30 -121 7 -170 -30 -64 -151 -71 -206
-12 -65 70 -4 137 83 92 17 -8 34 -13 37 -10 10 11 -33 61 -69 78 -75 37 -159
-26 -159 -119 0 -85 90 -153 205 -153 137 0 210 82 210 235 -1 105 -52 187
-143 231 -41 19 -156 27 -212 15z"/>
</g>
</svg>
