<svg xmlns="http://www.w3.org/2000/svg" viewBox="0 0 240 110" fill="none">
  <!-- Continuous horizontal line -->
  <line x1="10" y1="55" x2="230" y2="55" stroke="#C9A84C" stroke-width=".8" opacity=".5"/>

  <!-- LEFT: қошқар мүйіз -->
  <path d="M50 55 C 50 38, 38 28, 28 38 C 22 44, 24 54, 32 54 C 36 54, 38 51, 36 48"
        stroke="#C9A84C" stroke-width="1.5" fill="none" stroke-linecap="round"/>
  <path d="M50 55 C 50 72, 38 82, 28 72 C 22 66, 24 56, 32 56 C 36 56, 38 59, 36 62"
        stroke="#C9A84C" stroke-width="1.5" fill="none" stroke-linecap="round"/>
  <path d="M50 55 C 62 50, 72 40, 68 28 C 64 20, 55 22, 56 30"
        stroke="#C9A84C" stroke-width="1.3" fill="none" stroke-linecap="round" opacity=".75"/>
  <path d="M50 55 C 62 60, 72 70, 68 82 C 64 90, 55 88, 56 80"
        stroke="#C9A84C" stroke-width="1.3" fill="none" stroke-linecap="round" opacity=".75"/>
  <circle cx="28" cy="55" r="2" fill="#8B1A2E" opacity=".55"/>

  <!-- RIGHT: қошқар мүйіз (mirror) -->
  <path d="M190 55 C 190 38, 202 28, 212 38 C 218 44, 216 54, 208 54 C 204 54, 202 51, 204 48"
        stroke="#C9A84C" stroke-width="1.5" fill="none" stroke-linecap="round"/>
  <path d="M190 55 C 190 72, 202 82, 212 72 C 218 66, 216 56, 208 56 C 204 56, 202 59, 204 62"
        stroke="#C9A84C" stroke-width="1.5" fill="none" stroke-linecap="round"/>
  <path d="M190 55 C 178 50, 168 40, 172 28 C 176 20, 185 22, 184 30"
        stroke="#C9A84C" stroke-width="1.3" fill="none" stroke-linecap="round" opacity=".75"/>
  <path d="M190 55 C 178 60, 168 70, 172 82 C 176 90, 185 88, 184 80"
        stroke="#C9A84C" stroke-width="1.3" fill="none" stroke-linecap="round" opacity=".75"/>
  <circle cx="212" cy="55" r="2" fill="#8B1A2E" opacity=".55"/>
</svg>
