<svg xmlns="http://www.w3.org/2000/svg" viewBox="0 0 320 820" fill="none">
  <!-- Сәукеле -->
  <path d="M160 10 C158 10 130 55 118 100 C108 138 104 165 104 172 L216 172 C216 165 212 138 202 100 C190 55 162 10 160 10Z" fill="#C9A84C"/>
  <path d="M160 10 C162 10 190 55 202 100 C212 138 216 165 216 172 L180 172 C180 165 178 138 172 100 C165 55 162 10 160 10Z" fill="#8B1A2E" opacity=".3"/>
  <rect x="110" y="148" width="100" height="8" rx="2" fill="#8B1A2E" opacity=".6"/>
  <rect x="115" y="128" width="90" height="6" rx="2" fill="#8B1A2E" opacity=".5"/>
  <rect x="122" y="112" width="76" height="5" rx="2" fill="#8B1A2E" opacity=".45"/>
  <circle cx="160" cy="100" r="5" fill="#8B1A2E" opacity=".7"/>
  <circle cx="148" cy="125" r="4" fill="#8B1A2E" opacity=".6"/>
  <circle cx="172" cy="125" r="4" fill="#8B1A2E" opacity=".6"/>
  <circle cx="140" cy="148" r="3.5" fill="#8B1A2E" opacity=".55"/>
  <circle cx="160" cy="148" r="3.5" fill="#8B1A2E" opacity=".55"/>
  <circle cx="180" cy="148" r="3.5" fill="#8B1A2E" opacity=".55"/>
  <path d="M160 68 L165 76 L160 84 L155 76Z" fill="#8B1A2E" opacity=".5"/>
  <!-- Feathers -->
  <path d="M160 10 C155 0 145 -5 142 2 C139 9 148 18 160 10Z" fill="#C9A84C" opacity=".7"/>
  <path d="M160 10 C165 0 175 -5 178 2 C181 9 172 18 160 10Z" fill="#C9A84C" opacity=".7"/>
  <path d="M160 10 C157 -2 153 -8 156 -12 C159 -16 163 -8 160 10Z" fill="#C9A84C" opacity=".6"/>
  <!-- Шашбау -->
  <path d="M104 172 C100 185 95 195 90 210 C85 225 82 238 84 245" stroke="#C9A84C" stroke-width="2" opacity=".7"/>
  <path d="M216 172 C220 185 225 195 230 210 C235 225 238 238 236 245" stroke="#C9A84C" stroke-width="2" opacity=".7"/>
  <circle cx="96" cy="192" r="3.5" fill="#C9A84C" opacity=".65"/>
  <circle cx="91" cy="210" r="3" fill="#C9A84C" opacity=".6"/>
  <circle cx="86" cy="226" r="3" fill="#C9A84C" opacity=".55"/>
  <circle cx="224" cy="192" r="3.5" fill="#C9A84C" opacity=".65"/>
  <circle cx="229" cy="210" r="3" fill="#C9A84C" opacity=".6"/>
  <circle cx="234" cy="226" r="3" fill="#C9A84C" opacity=".55"/>
  <!-- Face -->
  <ellipse cx="160" cy="200" rx="26" ry="30" fill="#C9A84C" opacity=".45"/>
  <rect x="152" y="228" width="16" height="20" rx="4" fill="#C9A84C" opacity=".35"/>
  <!-- Алқа -->
  <path d="M130 248 C138 258 150 264 160 264 C170 264 182 258 190 248" stroke="#C9A84C" stroke-width="2.5" opacity=".7" fill="none"/>
  <circle cx="146" cy="256" r="3.5" fill="#C9A84C" opacity=".7"/>
  <circle cx="160" cy="262" r="4"   fill="#8B1A2E" opacity=".65"/>
  <circle cx="174" cy="256" r="3.5" fill="#C9A84C" opacity=".7"/>
  <circle cx="138" cy="250" r="3"   fill="#C9A84C" opacity=".6"/>
  <circle cx="182" cy="250" r="3"   fill="#C9A84C" opacity=".6"/>
  <!-- Шапан -->
  <path d="M100 248 C82 260 68 280 60 310 C50 345 46 385 44 430 C42 480 44 540 46 600 C48 660 52 720 56 780 L264 780 C268 720 272 660 274 600 C276 540 278 480 276 430 C274 385 270 345 260 310 C252 280 238 260 220 248 C205 240 185 236 160 236 C135 236 115 240 100 248Z" fill="#8B1A2E" opacity=".55"/>
  <path d="M140 248 C132 260 128 285 126 315 C124 348 124 390 126 440 C128 490 132 550 136 610 C140 660 144 720 146 780 L174 780 C176 720 180 660 184 610 C188 550 192 490 194 440 C196 390 196 348 194 315 C192 285 188 260 180 248 C174 242 168 238 160 238 C152 238 146 242 140 248Z" fill="#C9A84C" opacity=".2"/>
  <path d="M200 248 C215 260 228 285 238 315 C248 348 254 390 256 440 L264 780 L220 780 C216 720 212 660 208 600 C204 550 200 490 198 440 C196 390 196 348 196 315 C196 285 198 262 200 248Z" fill="#8B1A2E" opacity=".2"/>
  <!-- Ою-өрнек -->
  <path d="M148 252 L160 272 L172 252" stroke="#C9A84C" stroke-width="2" opacity=".65" fill="none"/>
  <path d="M144 265 L160 285 L176 265" stroke="#C9A84C" stroke-width="1.5" opacity=".5" fill="none"/>
  <path d="M108 270 C114 265 120 268 118 275 C116 282 108 280 108 270Z" fill="#C9A84C" opacity=".45"/>
  <path d="M106 285 C112 280 118 283 116 290 C114 297 106 295 106 285Z" fill="#C9A84C" opacity=".4"/>
  <path d="M212 270 C206 265 200 268 202 275 C204 282 212 280 212 270Z" fill="#C9A84C" opacity=".45"/>
  <path d="M214 285 C208 280 202 283 204 290 C206 297 214 295 214 285Z" fill="#C9A84C" opacity=".4"/>
  <path d="M98 300 L222 300" stroke="#C9A84C" stroke-width="1.5" opacity=".3"/>
  <path d="M118 310 L124 318 L118 326 L112 318Z" fill="#C9A84C" opacity=".35"/>
  <path d="M136 310 L142 318 L136 326 L130 318Z" fill="#C9A84C" opacity=".35"/>
  <path d="M160 310 L166 318 L160 326 L154 318Z" fill="#C9A84C" opacity=".4"/>
  <path d="M184 310 L190 318 L184 326 L178 318Z" fill="#C9A84C" opacity=".35"/>
  <path d="M202 310 L208 318 L202 326 L196 318Z" fill="#C9A84C" opacity=".35"/>
  <!-- Sleeves -->
  <path d="M68 280 C55 300 46 325 42 355 C38 380 40 400 48 410 C56 420 68 415 76 405 C84 395 88 375 90 355 C92 330 90 305 84 285 C78 270 72 268 68 280Z" fill="#8B1A2E" opacity=".5"/>
  <path d="M42 370 C44 375 50 378 58 376 C66 374 72 368 74 362" stroke="#C9A84C" stroke-width="2" opacity=".55" fill="none"/>
  <path d="M41 380 C43 385 50 388 59 386 C68 384 74 378 75 372" stroke="#C9A84C" stroke-width="1.5" opacity=".45" fill="none"/>
  <path d="M252 280 C265 300 274 325 278 355 C282 380 280 400 272 410 C264 420 252 415 244 405 C236 395 232 375 230 355 C228 330 230 305 236 285 C242 270 248 268 252 280Z" fill="#8B1A2E" opacity=".5"/>
  <path d="M278 370 C276 375 270 378 262 376 C254 374 248 368 246 362" stroke="#C9A84C" stroke-width="2" opacity=".55" fill="none"/>
  <path d="M279 380 C277 385 270 388 261 386 C252 384 246 378 245 372" stroke="#C9A84C" stroke-width="1.5" opacity=".45" fill="none"/>
  <!-- Белдік -->
  <path d="M72 400 L248 400" stroke="#C9A84C" stroke-width="3" opacity=".5"/>
  <path d="M74 408 L246 408" stroke="#C9A84C" stroke-width="1.5" opacity=".35"/>
  <path d="M130 398 L136 404 L130 410 L124 404Z" fill="#C9A84C" opacity=".55"/>
  <path d="M150 398 L156 404 L150 410 L144 404Z" fill="#C9A84C" opacity=".55"/>
  <path d="M160 396 L168 404 L160 412 L152 404Z" fill="#8B1A2E" opacity=".55"/>
  <path d="M170 398 L176 404 L170 410 L164 404Z" fill="#C9A84C" opacity=".55"/>
  <path d="M190 398 L196 404 L190 410 L184 404Z" fill="#C9A84C" opacity=".55"/>
  <!-- Skirt hem -->
  <path d="M56 740 L264 740" stroke="#C9A84C" stroke-width="2.5" opacity=".4"/>
  <path d="M54 750 L266 750" stroke="#C9A84C" stroke-width="1.5" opacity=".3"/>
  <path d="M52 760 L268 760" stroke="#C9A84C" stroke-width="1" opacity=".25"/>
  <path d="M80 730  L86 737  L80 744  L74 737Z"  fill="#C9A84C" opacity=".35"/>
  <path d="M100 730 L106 737 L100 744 L94 737Z"  fill="#C9A84C" opacity=".35"/>
  <path d="M120 730 L126 737 L120 744 L114 737Z" fill="#C9A84C" opacity=".35"/>
  <path d="M140 730 L146 737 L140 744 L134 737Z" fill="#C9A84C" opacity=".35"/>
  <path d="M160 728 L168 737 L160 746 L152 737Z" fill="#C9A84C" opacity=".45"/>
  <path d="M180 730 L186 737 L180 744 L174 737Z" fill="#C9A84C" opacity=".35"/>
  <path d="M200 730 L206 737 L200 744 L194 737Z" fill="#C9A84C" opacity=".35"/>
  <path d="M220 730 L226 737 L220 744 L214 737Z" fill="#C9A84C" opacity=".35"/>
  <path d="M240 730 L246 737 L240 744 L234 737Z" fill="#C9A84C" opacity=".35"/>
  <line x1="110" y1="420" x2="106" y2="720" stroke="#C9A84C" stroke-width="1" opacity=".2"/>
  <line x1="160" y1="420" x2="160" y2="720" stroke="#C9A84C" stroke-width="1" opacity=".2"/>
  <line x1="210" y1="420" x2="214" y2="720" stroke="#C9A84C" stroke-width="1" opacity=".2"/>
</svg>
