<svg xmlns="http://www.w3.org/2000/svg" viewBox="0 0 320 820" fill="none">
  <path d="M160 10 C158 10 130 55 118 100 C108 138 104 165 104 172 L216 172 C216 165 212 138 202 100 C190 55 162 10 160 10Z" fill="#C9A84C"/>
  <path d="M160 10 C162 10 190 55 202 100 C212 138 216 165 216 172 L180 172 C180 165 178 138 172 100 C165 55 162 10 160 10Z" fill="#8B1A2E" opacity=".3"/>
  <rect x="110" y="148" width="100" height="8" rx="2" fill="#8B1A2E" opacity=".6"/>
  <rect x="115" y="128" width="90" height="6" rx="2" fill="#8B1A2E" opacity=".5"/>
  <rect x="122" y="112" width="76" height="5" rx="2" fill="#8B1A2E" opacity=".45"/>
  <circle cx="160" cy="100" r="5" fill="#8B1A2E" opacity=".7"/>
  <circle cx="148" cy="125" r="4" fill="#8B1A2E" opacity=".6"/>
  <circle cx="172" cy="125" r="4" fill="#8B1A2E" opacity=".6"/>
  <path d="M160 10 C155 0 145 -5 142 2 C139 9 148 18 160 10Z" fill="#C9A84C" opacity=".7"/>
  <path d="M160 10 C165 0 175 -5 178 2 C181 9 172 18 160 10Z" fill="#C9A84C" opacity=".7"/>
  <path d="M160 10 C157 -2 153 -8 156 -12 C159 -16 163 -8 160 10Z" fill="#C9A84C" opacity=".6"/>
  <ellipse cx="160" cy="200" rx="26" ry="30" fill="#C9A84C" opacity=".45"/>
  <rect x="152" y="228" width="16" height="20" rx="4" fill="#C9A84C" opacity=".35"/>
  <path d="M100 248 C82 260 68 280 60 310 C50 345 46 385 44 430 C42 480 44 540 46 600 C48 660 52 720 56 780 L264 780 C268 720 272 660 274 600 C276 540 278 480 276 430 C274 385 270 345 260 310 C252 280 238 260 220 248 C205 240 185 236 160 236 C135 236 115 240 100 248Z" fill="#8B1A2E" opacity=".5"/>
  <path d="M68 280 C55 300 46 325 42 355 C38 380 40 400 48 410 C56 420 68 415 76 405 C84 395 88 375 90 355 C92 330 90 305 84 285 C78 270 72 268 68 280Z" fill="#8B1A2E" opacity=".4"/>
  <path d="M252 280 C265 300 274 325 278 355 C282 380 280 400 272 410 C264 420 252 415 244 405 C236 395 232 375 230 355 C228 330 230 305 236 285 C242 270 248 268 252 280Z" fill="#8B1A2E" opacity=".4"/>
  <path d="M56 740 L264 740" stroke="#C9A84C" stroke-width="2.5" opacity=".4"/>
  <path d="M160 396 L168 404 L160 412 L152 404Z" fill="#8B1A2E" opacity=".45"/>
</svg>
