<?xml version="1.0" encoding="utf-8"?>
<svg version="1.0" xmlns="http://www.w3.org/2000/svg" width="1199.000000pt" height="674.000000pt" viewBox="0 0 1199.000000 674.000000" preserveAspectRatio="xMidYMid meet">
  <g transform="matrix(0.110542, 0, 0, -0.110298, -75.709086, 714.594143)" fill="#8b1a2e" stroke="none" style="">
    <path d="M6090 4587 c-28 -22 -50 -61 -50 -89 0 -25 -4 -28 -33 -28 -41 0 -67 -26 -67 -67 0 -21 17 -52 57 -104 59 -77 96 -150 108 -209 7 -34 6 -33 -81 50 -193 186 -346 261 -485 239 -46 -7 -80 -23 -68 -32 10 -7 112 -49 199 -83 158 -60 284 -130 379 -211 l35 -30 -30 -41 c-16 -23 -35 -44 -43 -47 -8 -3 -31 6 -50 21 -268 196 -553 302 -785 292 -100 -5 -188 -30 -169 -49 15 -15 117 -37 248 -53 256 -33 410 -74 570 -153 82 -40 155 -85 155 -95 0 -9 -59 -96 -69 -102 -4 -3 -65 24 -136 59 -218 110 -430 169 -645 181 -310 17 -512 -94 -484 -268 l6 -35 -138 -6 c-161 -6 -223 -22 -280 -71 -38 -33 -39 -35 -40 -104 -1 -47 -7 -79 -17 -96 -41 -61 -154 -59 -417 8 -235 60 -285 68 -422 68 -135 0 -239 -19 -379 -68 -97 -34 -249 -99 -249 -107 0 -2 26 4 58 15 181 60 433 108 570 108 111 0 258 -26 488 -86 192 -49 235 -57 345 -61 149 -7 174 1 166 50 -2 18 -10 58 -17 89 -11 50 -10 60 6 94 23 46 62 62 156 63 152 2 253 -25 314 -84 72 -69 107 -97 169 -140 138 -94 284 -141 345 -110 43 22 63 67 55 124 -6 38 -15 54 -56 93 -59 55 -164 108 -267 133 -40 9 -74 21 -77 25 -3 4 -43 14 -89 20 -84 13 -84 13 -102 51 -11 26 -15 51 -11 75 28 170 415 204 826 72 118 -37 272 -105 289 -126 6 -9 12 -12 12 -8 0 6 81 -35 99 -50 2 -2 -4 -14 -15 -26 -19 -23 -19 -23 2 -5 27 22 28 22 81 -14 l45 -31 -28 -25 c-16 -13 -22 -21 -14 -17 8 4 23 14 33 22 13 12 20 13 29 4 18 -18 32 -14 17 4 -11 14 -9 19 11 34 54 41 68 45 92 24 l23 -19 -19 23 c-11 12 -17 24 -15 26 19 16 99 56 99 49 0 -4 4 -3 8 3 12 19 127 73 241 113 261 94 531 125 703 81 120 -30 178 -79 178 -150 0 -39 -24 -87 -47 -94 -10 -2 -45 -10 -78 -16 -127 -25 -307 -93 -380 -144 -91 -63 -126 -152 -88 -217 28 -47 74 -55 161 -29 121 35 216 93 369 223 l93 79 92 15 c130 21 243 15 285 -15 41 -29 51 -85 29 -157 -35 -111 -22 -120 153 -112 128 6 166 14 441 85 329 85 539 79 886 -23 65 -19 121 -35 124 -35 11 1 -57 34 -149 72 -150 63 -267 89 -456 102 -81 6 -218 -16 -408 -64 -272 -69 -395 -75 -438 -23 -8 9 -17 52 -20 96 -5 76 -8 82 -41 113 -52 47 -121 65 -278 71 l-135 6 0 61 c0 130 -101 210 -301 237 -169 22 -376 -4 -592 -76 -106 -35 -361 -155 -394 -185 -9 -8 -30 -23 -46 -32 l-29 -17 -43 45 -42 45 21 23 c12 13 33 29 46 36 23 13 28 11 62 -21 l37 -34 -27 37 c-15 20 -27 41 -27 45 0 9 91 64 175 106 116 57 294 106 480 131 184 26 248 38 289 54 l39 15 -39 20 c-50 26 -195 34 -302 17 -183 -29 -484 -170 -635 -296 l-29 -24 -41 51 -41 52 34 29 c90 75 225 152 355 202 137 53 225 91 225 99 0 31 -155 36 -238 7 -79 -28 -202 -113 -305 -210 -64 -61 -87 -77 -87 -63 0 44 36 119 96 200 48 64 64 94 64 118 0 40 -26 65 -69 65 -26 0 -32 3 -27 16 8 21 -21 81 -48 99 -24 18 -27 18 -46 2z m60 -177 c11 -11 20 -28 20 -37 0 -20 -52 -153 -60 -153 -12 0 -61 150 -56 168 6 19 39 40 64 41 6 1 21 -8 32 -19z m8 -457 c45 -41 45 -41 -11 -92 l-37 -35 -40 39 c-22 21 -40 43 -40 49 0 11 68 76 80 76 4 0 26 -17 48 -37z m-102 -107 l39 -34 -44 -45 -43 -45 -44 27 c-24 14 -44 30 -44 35 0 15 70 96 84 96 7 0 30 -15 52 -34z m103 -90 l43 -43 -46 -38 -45 -37 -46 38 -46 37 43 44 c23 23 45 43 48 43 3 0 25 -20 49 -44z m-1056 -226 c119 -43 177 -94 162 -140 -9 -28 -48 -25 -120 8 -57 27 -217 141 -231 164 -13 20 96 1 189 -32z m2197 32 c0 -26 -168 -148 -244 -177 -60 -23 -90 -17 -94 17 -3 21 5 36 30 59 40 38 79 56 183 85 85 24 125 29 125 16z"/>
    <path d="M3150 3799 c-162 -34 -247 -61 -610 -196 -476 -176 -739 -242 -1035 -261 -271 -17 -377 -2 -540 72 -107 49 -132 63 -125 70 4 4 41 12 73 15 20 2 5 63 -25 96 -28 33 -35 36 -67 30 -42 -8 -88 -37 -115 -72 -17 -23 -18 -28 -3 -58 26 -55 200 -131 350 -154 248 -38 525 -27 807 30 130 27 394 96 640 167 485 141 566 157 810 156 179 0 285 -17 386 -59 51 -21 52 -19 13 21 -50 52 -133 104 -208 130 -56 20 -84 23 -186 23 -66 -1 -140 -5 -165 -10z"/>
    <path d="M8750 3795 c-71 -20 -97 -32 -158 -74 -50 -34 -102 -83 -102 -96 0 -2 15 2 33 9 17 8 73 24 122 37 78 21 113 24 270 23 229 0 334 -20 790 -151 599 -173 858 -223 1161 -224 199 -1 314 15 456 65 125 43 182 77 198 116 11 28 11 34 -7 58 -24 32 -66 57 -111 67 -29 6 -37 3 -66 -28 -55 -59 -55 -107 0 -107 19 0 34 -3 34 -8 0 -4 -23 -23 -52 -41 -112 -74 -417 -124 -618 -102 -362 40 -551 91 -1074 285 -260 97 -406 144 -535 171 -87 18 -278 18 -341 0z"/>
  </g>
</svg>