<?xml version="1.0" standalone="no"?>
<!DOCTYPE svg PUBLIC "-//W3C//DTD SVG 20010904//EN"
 "http://www.w3.org/TR/2001/REC-SVG-20010904/DTD/svg10.dtd">
<svg version="1.0" xmlns="http://www.w3.org/2000/svg"
 width="600.000000pt" height="600.000000pt" viewBox="0 0 600.000000 600.000000"
 preserveAspectRatio="xMidYMid meet">

<g transform="translate(0.000000,600.000000) scale(0.100000,-0.100000)"
fill="#000000" stroke="none">
<path d="M1860 3090 c30 -4 69 -10 85 -14 20 -4 17 -1 -10 8 -22 8 -60 14 -85
14 l-45 -1 55 -7z"/>
<path d="M4118 3093 c6 -2 18 -2 25 0 6 3 1 5 -13 5 -14 0 -19 -2 -12 -5z"/>
<path d="M1744 3073 c-30 -15 -71 -69 -61 -80 3 -3 13 9 22 27 10 19 32 39 58
51 23 10 35 18 27 18 -8 0 -29 -7 -46 -16z"/>
<path d="M2489 3069 c-15 -15 -20 -30 -17 -55 2 -19 1 -34 -2 -34 -4 0 -33 13
-66 29 -128 64 -176 71 -367 60 l-57 -4 72 -33 c96 -44 168 -73 168 -67 0 3
-36 21 -80 41 -44 20 -80 40 -80 45 0 15 88 21 127 9 20 -7 112 -50 203 -95
169 -82 278 -115 332 -100 117 32 164 112 101 171 -31 29 -89 30 -107 2 -15
-24 0 -34 22 -15 41 38 102 11 102 -44 0 -129 -276 -124 -345 6 -18 32 -19 38
-5 63 19 33 45 39 71 16 21 -19 35 -14 26 11 -9 23 -73 19 -98 -6z"/>
<path d="M3410 3070 c-8 -16 -8 -20 3 -20 8 0 20 7 27 15 34 41 83 -3 69 -63
-10 -47 -57 -88 -123 -107 -134 -40 -238 8 -222 104 4 25 2 31 -4 21 -32 -49
16 -129 88 -149 89 -25 170 -3 389 107 150 74 180 86 225 86 29 1 62 -3 73 -7
17 -7 7 -15 -60 -47 -44 -21 -76 -39 -72 -39 5 -1 42 15 84 34 73 34 77 35 97
18 12 -10 15 -11 9 -3 -21 23 -16 28 50 49 34 11 54 20 44 20 -10 1 -41 -7
-71 -18 -48 -17 -55 -17 -81 -3 -62 32 -224 1 -358 -69 l-57 -30 6 40 c5 31 2
43 -15 60 -28 28 -86 29 -101 1z"/>
<path d="M4188 3083 c6 -2 18 -2 25 0 6 3 1 5 -13 5 -14 0 -19 -2 -12 -5z"/>
<path d="M2971 3020 c-12 -27 -27 -50 -34 -50 -7 0 -6 -4 4 -10 8 -5 24 -27
34 -50 10 -22 21 -40 26 -40 4 0 15 20 26 45 17 43 20 45 63 47 l45 1 -43 4
c-41 4 -44 7 -65 54 -12 27 -25 49 -28 49 -4 0 -16 -22 -28 -50z"/>
<path d="M4250 3066 c0 -2 7 -7 16 -10 8 -3 12 -2 9 4 -6 10 -25 14 -25 6z"/>
<path d="M3203 3050 c-32 -13 -28 -17 12 -12 25 3 36 0 41 -12 8 -20 34 -21
34 -1 0 9 -12 20 -26 25 -30 12 -32 12 -61 0z"/>
<path d="M2001 3022 c-17 -31 -13 -40 5 -14 9 13 14 26 11 29 -3 2 -10 -4 -16
-15z"/>
<path d="M4294 3024 c22 -53 22 -53 -45 -57 -35 -2 2 -4 83 -5 81 -1 158 -7
171 -13 18 -8 41 -7 93 4 l69 15 -172 1 -171 1 -7 30 c-4 16 -11 33 -17 37 -8
4 -9 0 -4 -13z"/>
<path d="M1786 3023 c-13 -13 -5 -23 19 -23 13 0 29 -8 34 -17 6 -10 10 -13
11 -8 0 23 -50 61 -64 48z"/>
<path d="M4176 3009 c-14 -11 -26 -25 -26 -30 0 -6 7 -3 16 5 8 9 24 16 35 16
10 0 19 4 19 9 0 20 -19 20 -44 0z"/>
<path d="M1380 2959 c30 -12 70 -12 205 -1 l100 8 -165 2 c-119 0 -158 -2
-140 -9z"/>
<path d="M1948 2963 c23 -2 59 -2 80 0 20 2 1 4 -43 4 -44 0 -61 -2 -37 -4z"/>
<path d="M3198 2963 c12 -2 32 -2 45 0 12 2 2 4 -23 4 -25 0 -35 -2 -22 -4z"/>
<path d="M3278 2963 c7 -3 16 -2 19 1 4 3 -2 6 -13 5 -11 0 -14 -3 -6 -6z"/>
<path d="M3333 2963 c15 -2 39 -2 55 0 15 2 2 4 -28 4 -30 0 -43 -2 -27 -4z"/>
<path d="M3428 2963 c6 -2 18 -2 25 0 6 3 1 5 -13 5 -14 0 -19 -2 -12 -5z"/>
<path d="M3760 2960 c-8 -5 -10 -10 -5 -10 6 0 17 5 25 10 8 5 11 10 5 10 -5
0 -17 -5 -25 -10z"/>
<path d="M3953 2963 c31 -2 83 -2 115 0 31 2 5 3 -58 3 -63 0 -89 -1 -57 -3z"/>
<path d="M1980 2942 c0 -30 40 -81 65 -82 5 0 -1 7 -14 16 -13 9 -29 31 -37
48 -7 17 -13 25 -14 18z"/>
<path d="M4150 2936 c0 -8 4 -17 9 -20 5 -4 7 3 4 14 -6 23 -13 26 -13 6z"/>
<path d="M1690 2933 c0 -19 51 -53 80 -53 15 0 38 9 51 21 l24 20 -28 -17
c-34 -21 -81 -13 -107 18 -11 13 -19 18 -20 11z"/>
<path d="M2298 2933 c7 -3 16 -2 19 1 4 3 -2 6 -13 5 -11 0 -14 -3 -6 -6z"/>
<path d="M3670 2930 c-18 -12 -2 -12 25 0 13 6 15 9 5 9 -8 0 -22 -4 -30 -9z"/>
<path d="M4282 2913 c-18 -20 -30 -24 -61 -21 -22 2 -37 0 -35 -4 11 -18 74
-7 101 16 15 13 26 27 23 29 -3 3 -15 -6 -28 -20z"/>
<path d="M2114 2905 c-3 -14 -18 -32 -33 -41 l-26 -15 30 6 c37 8 65 32 65 57
0 27 -29 22 -36 -7z"/>
<path d="M3850 2911 c0 -24 46 -61 74 -60 18 0 16 2 -7 11 -19 7 -30 19 -34
39 -6 32 -33 40 -33 10z"/>
<path d="M3978 2889 c-15 -16 -23 -29 -19 -29 11 0 51 39 51 50 0 13 0 13 -32
-21z"/>
</g>
</svg>
